<?xml version="1.0" standalone="no"?>
<!DOCTYPE svg PUBLIC "-//W3C//DTD SVG 20010904//EN"
 "http://www.w3.org/TR/2001/REC-SVG-20010904/DTD/svg10.dtd">
<svg version="1.0" xmlns="http://www.w3.org/2000/svg"
 width="128.000000pt" height="128.000000pt" viewBox="0 0 128.000000 128.000000"
 preserveAspectRatio="xMidYMid meet">
<metadata>
Created by potrace 1.14, written by Peter Selinger 2001-2017
</metadata>
<g transform="translate(0.000000,128.000000) scale(0.100000,-0.100000)"
fill="#000000" stroke="none">
<path d="M490 914 c-43 -39 -50 -66 -24 -102 14 -21 14 -23 -13 -33 -15 -6
-53 -11 -84 -12 -63 -1 -133 32 -163 78 -47 72 -103 -6 -150 -208 -15 -64 -19
-82 -31 -152 -3 -16 -10 -45 -16 -62 -13 -40 -9 -46 38 -69 35 -18 74 -19 558
-22 363 -2 533 0 565 8 86 22 125 89 101 171 -22 74 -91 116 -216 134 -22 4
-67 19 -101 34 -56 26 -61 31 -62 61 -1 43 -26 61 -82 58 -44 -3 -45 -2 -43
26 4 58 -43 97 -91 74 -21 -9 -32 -6 -72 21 -26 17 -53 31 -61 31 -7 0 -31
-16 -53 -36z m96 -36 c29 -22 30 -25 18 -53 -10 -24 -9 -35 2 -56 18 -36 51
-43 93 -18 41 24 62 13 38 -21 -18 -26 -13 -68 11 -86 26 -21 58 -16 91 12
l31 26 10 -29 c25 -68 48 -93 111 -120 36 -16 104 -8 145 16 42 25 64 18 87
-31 l16 -33 -581 -3 c-320 -1 -583 0 -585 2 -3 2 1 32 8 66 11 56 14 61 33 55
40 -13 86 -17 120 -11 39 8 100 59 115 97 7 21 18 27 50 32 96 12 145 63 105
108 -17 18 -16 20 6 44 29 31 38 31 76 3z m134 -33 c0 -20 -40 -65 -57 -65
-27 0 -25 29 4 54 32 29 53 33 53 11z m-446 -105 c41 -13 44 -27 16 -62 -38
-49 -116 -60 -165 -24 -17 12 -18 18 -7 57 7 24 20 60 28 79 l15 36 39 -37
c21 -20 55 -42 74 -49z m573 4 c5 -15 -41 -74 -59 -74 -23 0 -18 34 8 61 31
33 42 36 51 13z m198 -140 c22 -4 43 -8 47 -8 19 -2 17 -15 -4 -22 -53 -17
-120 5 -146 47 -12 18 -10 18 25 5 21 -8 56 -18 78 -22z m185 -174 c0 -15 -37
-39 -75 -48 -58 -14 -1042 -9 -1077 6 -25 10 -36 31 -23 44 8 8 1175 6 1175
-2z"/>
<path d="M470 626 c-25 -96 -22 -116 18 -90 15 9 32 21 37 28 6 6 25 24 42 39
l31 28 -11 -46 c-8 -34 -7 -49 2 -58 9 -9 14 -9 21 3 12 18 37 98 46 146 9 50
-17 45 -87 -16 l-58 -50 10 32 c14 50 11 68 -10 68 -14 0 -23 -17 -41 -84z"/>
</g>
</svg>
